<svg width="183" height="97" viewBox="0 0 183 97" fill="none" xmlns="http://www.w3.org/2000/svg">
<path d="M16.5 10V70H30.1179V25.1648L40.8902 70H53.8984L64.4675 25.1648V70H84.9959H99.4268H118.939V25.1648L128.898 70H141.907L152.679 25.1648V70H166.5V10H144.142L135.199 46.2637L126.663 10H99.4268H84.9959H55.9309L47.1911 46.2637L39.061 10H16.5Z" fill="black"/>
<path d="M84.1831 27.3626H69.3457C72.4973 16.2766 75.5531 12.1619 84.1831 10H97.3945C104.562 10.78 106.755 13.5169 109.183 17.6923C111.611 21.8678 112.233 32.1891 103.086 36.8132C111.469 39.6695 114.084 42.654 114.061 51.0989C112.05 63.4082 106.946 68.566 98.614 69.3407H84.1831C75.179 66.9034 71.7997 63.1015 69.3457 51.0989H84.1831C85.4692 57.1898 86.7613 58.5263 89.4677 59.4506C94.3497 61.1796 98.4536 57.7068 98.614 51.0989C98.0624 44.0281 95.3117 42.4129 86.8254 42.967V31.5385H91.5002C98.3838 28.8836 97.4347 21.1903 91.5002 19.6703C86.4471 19.0866 85.2608 21.3971 84.1831 27.3626Z" fill="#FBFFFF" stroke="#020404"/>
<path d="M25.7936 78.9091C25.7936 79.983 25.5997 80.911 25.2119 81.6932C24.8241 82.4754 24.2922 83.0786 23.616 83.5028C22.9399 83.9271 22.1676 84.1392 21.2993 84.1392C20.4309 84.1392 19.6586 83.9271 18.9825 83.5028C18.3064 83.0786 17.7744 82.4754 17.3866 81.6932C16.9988 80.911 16.805 79.983 16.805 78.9091C16.805 77.8352 16.9988 76.9072 17.3866 76.125C17.7744 75.3428 18.3064 74.7396 18.9825 74.3153C19.6586 73.8911 20.4309 73.679 21.2993 73.679C22.1676 73.679 22.9399 73.8911 23.616 74.3153C24.2922 74.7396 24.8241 75.3428 25.2119 76.125C25.5997 76.9072 25.7936 77.8352 25.7936 78.9091ZM24.6004 78.9091C24.6004 78.0275 24.4529 77.2834 24.1579 76.6768C23.8663 76.0703 23.4702 75.6113 22.9697 75.2997C22.4726 74.9882 21.9157 74.8324 21.2993 74.8324C20.6828 74.8324 20.1243 74.9882 19.6238 75.2997C19.1267 75.6113 18.7306 76.0703 18.4356 76.6768C18.144 77.2834 17.9981 78.0275 17.9981 78.9091C17.9981 79.7907 18.144 80.5348 18.4356 81.1413C18.7306 81.7479 19.1267 82.2069 19.6238 82.5185C20.1243 82.83 20.6828 82.9858 21.2993 82.9858C21.9157 82.9858 22.4726 82.83 22.9697 82.5185C23.4702 82.2069 23.8663 81.7479 24.1579 81.1413C24.4529 80.5348 24.6004 79.7907 24.6004 78.9091ZM32.5202 80.8778V76.3636H33.6934V84H32.5202V82.7074H32.4406C32.2616 83.0952 31.9832 83.425 31.6054 83.6967C31.2275 83.9652 30.7503 84.0994 30.1736 84.0994C29.6963 84.0994 29.272 83.995 28.9008 83.7862C28.5296 83.5741 28.238 83.2559 28.0258 82.8317C27.8137 82.4041 27.7077 81.8655 27.7077 81.2159V76.3636H28.8809V81.1364C28.8809 81.6932 29.0367 82.1373 29.3483 82.4688C29.6631 82.8002 30.0642 82.9659 30.5514 82.9659C30.8431 82.9659 31.1397 82.8913 31.4413 82.7422C31.7462 82.593 32.0015 82.3643 32.2069 82.0561C32.4157 81.7479 32.5202 81.3551 32.5202 80.8778ZM35.8424 84V76.3636H36.9759V77.517H37.0555C37.1947 77.1392 37.4466 76.8326 37.8112 76.5973C38.1758 76.362 38.5867 76.2443 39.0441 76.2443C39.1303 76.2443 39.238 76.246 39.3673 76.2493C39.4965 76.2526 39.5943 76.2576 39.6606 76.2642V77.4574C39.6208 77.4474 39.5297 77.4325 39.3872 77.4126C39.248 77.3894 39.1005 77.3778 38.9447 77.3778C38.5735 77.3778 38.242 77.4557 37.9504 77.6115C37.662 77.764 37.4333 77.9761 37.2643 78.2479C37.0986 78.5163 37.0157 78.8229 37.0157 79.1676V84H35.8424ZM45.148 84V73.8182H51.2929V74.9119H46.3809V78.3523H50.9747V79.446H46.3809V82.9062H51.3724V84H45.148ZM53.3561 86.8636V76.3636H54.4896V77.5767H54.6288C54.715 77.4441 54.8343 77.2751 54.9868 77.0696C55.1425 76.8608 55.3646 76.6752 55.653 76.5128C55.9446 76.3471 56.339 76.2642 56.8362 76.2642C57.4792 76.2642 58.046 76.425 58.5365 76.7464C59.027 77.0679 59.4098 77.5237 59.6849 78.1136C59.96 78.7036 60.0976 79.3996 60.0976 80.2017C60.0976 81.0104 59.96 81.7114 59.6849 82.3047C59.4098 82.8946 59.0287 83.352 58.5415 83.6768C58.0542 83.9983 57.4925 84.1591 56.8561 84.1591C56.3656 84.1591 55.9728 84.0779 55.6778 83.9155C55.3828 83.7498 55.1558 83.5625 54.9967 83.3537C54.8376 83.1416 54.715 82.9659 54.6288 82.8267H54.5294V86.8636H53.3561ZM54.5095 80.1818C54.5095 80.7585 54.594 81.2673 54.7631 81.7081C54.9321 82.1456 55.179 82.4886 55.5038 82.7372C55.8286 82.9825 56.2264 83.1051 56.697 83.1051C57.1875 83.1051 57.5969 82.9759 57.925 82.7173C58.2564 82.4555 58.505 82.1042 58.6707 81.6634C58.8398 81.2192 58.9243 80.7254 58.9243 80.1818C58.9243 79.6449 58.8414 79.161 58.6757 78.7301C58.5133 78.2959 58.2664 77.9529 57.9349 77.701C57.6068 77.4458 57.1942 77.3182 56.697 77.3182C56.2197 77.3182 55.8187 77.4392 55.4939 77.6811C55.1691 77.9197 54.9238 78.2545 54.7581 78.6854C54.5924 79.1129 54.5095 79.6117 54.5095 80.1818ZM65.089 84.1591C64.3532 84.1591 63.7185 83.9967 63.1849 83.6719C62.6546 83.3438 62.2453 82.8864 61.9569 82.2997C61.6719 81.7098 61.5294 81.0237 61.5294 80.2415C61.5294 79.4593 61.6719 78.7699 61.9569 78.1733C62.2453 77.5734 62.6463 77.1061 63.1601 76.7713C63.6771 76.4332 64.2803 76.2642 64.9697 76.2642C65.3675 76.2642 65.7602 76.3305 66.148 76.4631C66.5358 76.5956 66.8888 76.8111 67.2069 77.1094C67.5251 77.4044 67.7787 77.7955 67.9676 78.2827C68.1565 78.7699 68.251 79.3698 68.251 80.0824V80.5795H62.3646V79.5653H67.0578C67.0578 79.1345 66.9716 78.75 66.7993 78.4119C66.6302 78.0739 66.3883 77.8071 66.0734 77.6115C65.7619 77.416 65.394 77.3182 64.9697 77.3182C64.5024 77.3182 64.098 77.4342 63.7567 77.6662C63.4186 77.8949 63.1584 78.1932 62.9761 78.5611C62.7938 78.929 62.7027 79.3234 62.7027 79.7443V80.4205C62.7027 80.9972 62.8021 81.486 63.001 81.8871C63.2032 82.2848 63.4832 82.5881 63.8412 82.7969C64.1991 83.0024 64.6151 83.1051 65.089 83.1051C65.3973 83.1051 65.6757 83.062 65.9243 82.9759C66.1762 82.8864 66.3933 82.7538 66.5756 82.5781C66.7578 82.3991 66.8987 82.1771 66.9981 81.9119L68.1317 82.2301C68.0123 82.6146 67.8118 82.9527 67.5301 83.2443C67.2484 83.5327 66.9004 83.758 66.4861 83.9205C66.0718 84.0795 65.6061 84.1591 65.089 84.1591ZM70.0358 84V76.3636H71.1693V77.517H71.2488C71.3881 77.1392 71.6399 76.8326 72.0045 76.5973C72.3691 76.362 72.7801 76.2443 73.2375 76.2443C73.3237 76.2443 73.4314 76.246 73.5606 76.2493C73.6899 76.2526 73.7877 76.2576 73.854 76.2642V77.4574C73.8142 77.4474 73.723 77.4325 73.5805 77.4126C73.4413 77.3894 73.2938 77.3778 73.1381 77.3778C72.7668 77.3778 72.4354 77.4557 72.1437 77.6115C71.8554 77.764 71.6267 77.9761 71.4577 78.2479C71.2919 78.5163 71.2091 78.8229 71.2091 79.1676V84H70.0358ZM79.0443 76.3636V77.358H75.0869V76.3636H79.0443ZM76.2403 74.5341H77.4136V81.8125C77.4136 82.1439 77.4617 82.3925 77.5578 82.5582C77.6572 82.7206 77.7832 82.83 77.9356 82.8864C78.0914 82.9394 78.2555 82.9659 78.4278 82.9659C78.5571 82.9659 78.6631 82.9593 78.746 82.946C78.8289 82.9295 78.8952 82.9162 78.9449 82.9062L79.1835 83.9602C79.104 83.9901 78.9929 84.0199 78.8504 84.0497C78.7079 84.0829 78.5273 84.0994 78.3085 84.0994C77.9771 84.0994 77.6523 84.0282 77.3341 83.8857C77.0192 83.7431 76.7574 83.526 76.5486 83.2344C76.3431 82.9427 76.2403 82.5748 76.2403 82.1307V74.5341ZM80.8092 84V76.3636H81.9825V84H80.8092ZM81.4058 75.0909C81.1771 75.0909 80.9799 75.013 80.8142 74.8572C80.6518 74.7015 80.5706 74.5142 80.5706 74.2955C80.5706 74.0767 80.6518 73.8894 80.8142 73.7337C80.9799 73.5779 81.1771 73.5 81.4058 73.5C81.6345 73.5 81.83 73.5779 81.9925 73.7337C82.1582 73.8894 82.241 74.0767 82.241 74.2955C82.241 74.5142 82.1582 74.7015 81.9925 74.8572C81.83 75.013 81.6345 75.0909 81.4058 75.0909ZM89.5406 78.0739L88.4866 78.3722C88.4203 78.1965 88.3225 78.0258 88.1933 77.8601C88.0673 77.6911 87.895 77.5518 87.6762 77.4425C87.4575 77.3331 87.1774 77.2784 86.836 77.2784C86.3687 77.2784 85.9793 77.3861 85.6677 77.6016C85.3595 77.8137 85.2053 78.0838 85.2053 78.4119C85.2053 78.7036 85.3114 78.9339 85.5235 79.103C85.7356 79.272 86.0671 79.4129 86.5178 79.5256L87.6514 79.804C88.3341 79.9697 88.8429 80.2232 89.1776 80.5646C89.5124 80.9027 89.6798 81.3385 89.6798 81.8722C89.6798 82.3097 89.5538 82.7008 89.3019 83.0455C89.0534 83.3902 88.7053 83.6619 88.2579 83.8608C87.8105 84.0597 87.2901 84.1591 86.6968 84.1591C85.9179 84.1591 85.2733 83.9901 84.7629 83.652C84.2525 83.3139 83.9293 82.8201 83.7934 82.1705L84.907 81.892C85.0131 82.303 85.2136 82.6113 85.5086 82.8168C85.8069 83.0223 86.1963 83.125 86.6769 83.125C87.2238 83.125 87.658 83.009 87.9795 82.777C88.3043 82.5417 88.4667 82.2599 88.4667 81.9318C88.4667 81.6667 88.3739 81.4446 88.1883 81.2656C88.0027 81.0833 87.7177 80.9474 87.3332 80.858L86.0605 80.5597C85.3611 80.3939 84.8474 80.1371 84.5193 79.7891C84.1945 79.4377 84.032 78.9986 84.032 78.4716C84.032 78.0407 84.153 77.6596 84.395 77.3281C84.6402 76.9967 84.9733 76.7365 85.3943 76.5476C85.8185 76.3587 86.2991 76.2642 86.836 76.2642C87.5917 76.2642 88.185 76.4299 88.6159 76.7614C89.05 77.0928 89.3583 77.5303 89.5406 78.0739ZM94.6476 84.1591C93.9118 84.1591 93.2771 83.9967 92.7435 83.6719C92.2132 83.3438 91.8039 82.8864 91.5155 82.2997C91.2305 81.7098 91.088 81.0237 91.088 80.2415C91.088 79.4593 91.2305 78.7699 91.5155 78.1733C91.8039 77.5734 92.2049 77.1061 92.7187 76.7713C93.2357 76.4332 93.8389 76.2642 94.5283 76.2642C94.926 76.2642 95.3188 76.3305 95.7066 76.4631C96.0944 76.5956 96.4474 76.8111 96.7655 77.1094C97.0837 77.4044 97.3373 77.7955 97.5262 78.2827C97.7151 78.7699 97.8096 79.3698 97.8096 80.0824V80.5795H91.9232V79.5653H96.6164C96.6164 79.1345 96.5302 78.75 96.3579 78.4119C96.1888 78.0739 95.9469 77.8071 95.632 77.6115C95.3205 77.416 94.9526 77.3182 94.5283 77.3182C94.061 77.3182 93.6566 77.4342 93.3153 77.6662C92.9772 77.8949 92.717 78.1932 92.5347 78.5611C92.3524 78.929 92.2613 79.3234 92.2613 79.7443V80.4205C92.2613 80.9972 92.3607 81.486 92.5596 81.8871C92.7617 82.2848 93.0418 82.5881 93.3998 82.7969C93.7577 83.0024 94.1737 83.1051 94.6476 83.1051C94.9559 83.1051 95.2343 83.062 95.4829 82.9759C95.7348 82.8864 95.9519 82.7538 96.1341 82.5781C96.3164 82.3991 96.4573 82.1771 96.5567 81.9119L97.6903 82.2301C97.5709 82.6146 97.3704 82.9527 97.0887 83.2443C96.807 83.5327 96.459 83.758 96.0447 83.9205C95.6304 84.0795 95.1647 84.1591 94.6476 84.1591ZM100.449 84.0795C100.204 84.0795 99.9938 83.9917 99.8181 83.8161C99.6424 83.6404 99.5546 83.4299 99.5546 83.1847C99.5546 82.9394 99.6424 82.7289 99.8181 82.5533C99.9938 82.3776 100.204 82.2898 100.449 82.2898C100.695 82.2898 100.905 82.3776 101.081 82.5533C101.257 82.7289 101.344 82.9394 101.344 83.1847C101.344 83.3471 101.303 83.4962 101.22 83.6321C101.141 83.768 101.033 83.8774 100.897 83.9602C100.764 84.0398 100.615 84.0795 100.449 84.0795ZM106.671 73.8182H108.083L110.907 78.571H111.027L113.85 73.8182H115.262L111.583 79.804V84H110.35V79.804L106.671 73.8182ZM118.72 84.1591C118.031 84.1591 117.426 83.995 116.905 83.6669C116.388 83.3388 115.984 82.8797 115.692 82.2898C115.404 81.6998 115.26 81.0104 115.26 80.2216C115.26 79.4261 115.404 78.7318 115.692 78.1385C115.984 77.5452 116.388 77.0845 116.905 76.7564C117.426 76.4283 118.031 76.2642 118.72 76.2642C119.409 76.2642 120.013 76.4283 120.53 76.7564C121.05 77.0845 121.454 77.5452 121.743 78.1385C122.034 78.7318 122.18 79.4261 122.18 80.2216C122.18 81.0104 122.034 81.6998 121.743 82.2898C121.454 82.8797 121.05 83.3388 120.53 83.6669C120.013 83.995 119.409 84.1591 118.72 84.1591ZM118.72 83.1051C119.244 83.1051 119.675 82.9709 120.013 82.7024C120.351 82.4339 120.601 82.081 120.763 81.6435C120.926 81.206 121.007 80.732 121.007 80.2216C121.007 79.7112 120.926 79.2356 120.763 78.7947C120.601 78.3539 120.351 77.9976 120.013 77.7259C119.675 77.4541 119.244 77.3182 118.72 77.3182C118.196 77.3182 117.766 77.4541 117.427 77.7259C117.089 77.9976 116.839 78.3539 116.677 78.7947C116.514 79.2356 116.433 79.7112 116.433 80.2216C116.433 80.732 116.514 81.206 116.677 81.6435C116.839 82.081 117.089 82.4339 117.427 82.7024C117.766 82.9709 118.196 83.1051 118.72 83.1051ZM128.784 80.8778V76.3636H129.957V84H128.784V82.7074H128.704C128.525 83.0952 128.247 83.425 127.869 83.6967C127.491 83.9652 127.014 84.0994 126.437 84.0994C125.96 84.0994 125.536 83.995 125.165 83.7862C124.793 83.5741 124.502 83.2559 124.29 82.8317C124.077 82.4041 123.971 81.8655 123.971 81.2159V76.3636H125.145V81.1364C125.145 81.6932 125.3 82.1373 125.612 82.4688C125.927 82.8002 126.328 82.9659 126.815 82.9659C127.107 82.9659 127.403 82.8913 127.705 82.7422C128.01 82.593 128.265 82.3643 128.471 82.0561C128.679 81.7479 128.784 81.3551 128.784 80.8778ZM132.106 84V76.3636H133.24V77.517H133.319C133.458 77.1392 133.71 76.8326 134.075 76.5973C134.439 76.362 134.85 76.2443 135.308 76.2443C135.394 76.2443 135.502 76.246 135.631 76.2493C135.76 76.2526 135.858 76.2576 135.924 76.2642V77.4574C135.884 77.4474 135.793 77.4325 135.651 77.4126C135.512 77.3894 135.364 77.3778 135.208 77.3778C134.837 77.3778 134.506 77.4557 134.214 77.6115C133.926 77.764 133.697 77.9761 133.528 78.2479C133.362 78.5163 133.279 78.8229 133.279 79.1676V84H132.106ZM145.309 73.8182H146.542V81.0966C146.542 81.7462 146.423 82.2981 146.184 82.7521C145.946 83.2062 145.609 83.5509 145.175 83.7862C144.741 84.0215 144.229 84.1392 143.639 84.1392C143.082 84.1392 142.587 84.0381 142.152 83.8359C141.718 83.6304 141.377 83.3388 141.128 82.9609C140.88 82.5831 140.755 82.134 140.755 81.6136H141.968C141.968 81.902 142.04 82.1539 142.182 82.3693C142.328 82.5814 142.527 82.7472 142.779 82.8665C143.031 82.9858 143.317 83.0455 143.639 83.0455C143.994 83.0455 144.295 82.9709 144.544 82.8217C144.792 82.6726 144.981 82.4538 145.111 82.1655C145.243 81.8738 145.309 81.5175 145.309 81.0966V73.8182ZM151.956 84.1591C151.267 84.1591 150.662 83.995 150.142 83.6669C149.625 83.3388 149.22 82.8797 148.929 82.2898C148.64 81.6998 148.496 81.0104 148.496 80.2216C148.496 79.4261 148.64 78.7318 148.929 78.1385C149.22 77.5452 149.625 77.0845 150.142 76.7564C150.662 76.4283 151.267 76.2642 151.956 76.2642C152.646 76.2642 153.249 76.4283 153.766 76.7564C154.286 77.0845 154.691 77.5452 154.979 78.1385C155.271 78.7318 155.417 79.4261 155.417 80.2216C155.417 81.0104 155.271 81.6998 154.979 82.2898C154.691 82.8797 154.286 83.3388 153.766 83.6669C153.249 83.995 152.646 84.1591 151.956 84.1591ZM151.956 83.1051C152.48 83.1051 152.911 82.9709 153.249 82.7024C153.587 82.4339 153.837 82.081 154 81.6435C154.162 81.206 154.243 80.732 154.243 80.2216C154.243 79.7112 154.162 79.2356 154 78.7947C153.837 78.3539 153.587 77.9976 153.249 77.7259C152.911 77.4541 152.48 77.3182 151.956 77.3182C151.433 77.3182 151.002 77.4541 150.664 77.7259C150.326 77.9976 150.075 78.3539 149.913 78.7947C149.751 79.2356 149.669 79.7112 149.669 80.2216C149.669 80.732 149.751 81.206 149.913 81.6435C150.075 82.081 150.326 82.4339 150.664 82.7024C151.002 82.9709 151.433 83.1051 151.956 83.1051ZM157.69 86.8636C157.491 86.8636 157.314 86.8471 157.158 86.8139C157.002 86.7841 156.894 86.7543 156.835 86.7244L157.133 85.6903C157.418 85.7633 157.67 85.7898 157.889 85.7699C158.108 85.75 158.301 85.6522 158.47 85.4766C158.643 85.3042 158.8 85.0241 158.943 84.6364L159.161 84.0398L156.338 76.3636H157.61L159.718 82.4489H159.798L161.906 76.3636H163.179L159.937 85.1136C159.791 85.508 159.611 85.8345 159.395 86.093C159.18 86.3549 158.929 86.5488 158.644 86.6747C158.363 86.8007 158.045 86.8636 157.69 86.8636ZM165.104 84.0795C164.859 84.0795 164.648 83.9917 164.472 83.8161C164.297 83.6404 164.209 83.4299 164.209 83.1847C164.209 82.9394 164.297 82.7289 164.472 82.5533C164.648 82.3776 164.859 82.2898 165.104 82.2898C165.349 82.2898 165.56 82.3776 165.735 82.5533C165.911 82.7289 165.999 82.9394 165.999 83.1847C165.999 83.3471 165.957 83.4962 165.874 83.6321C165.795 83.768 165.687 83.8774 165.551 83.9602C165.419 84.0398 165.27 84.0795 165.104 84.0795Z" fill="#1A3636"/>
</svg>
